/* XPM */
static char * collectible__xpm[] = {
"32 32 255 2",
"  	c #291B09",
". 	c #2C1D0A",
"+ 	c #2D1D0A",
"@ 	c #2B1C09",
"# 	c #2A1C09",
"$ 	c #2E1E0A",
"% 	c #2B1D09",
"& 	c #31200B",
"* 	c #33210B",
"= 	c #2B1D0A",
"- 	c #2D1E0A",
"; 	c #2A1B09",
"> 	c #2C1D09",
", 	c #301F0A",
"' 	c #2F1F0A",
") 	c #32210B",
"! 	c #231709",
"~ 	c #201507",
"{ 	c #261908",
"] 	c #2A1C0A",
"^ 	c #30200A",
"/ 	c #2F1E0A",
"( 	c #201609",
"_ 	c #1B1309",
": 	c #070402",
"< 	c #050301",
"[ 	c #181007",
"} 	c #1E1509",
"| 	c #34220B",
"1 	c #30200B",
"2 	c #251809",
"3 	c #110B05",
"4 	c #000000",
"5 	c #1F1509",
"6 	c #35230C",
"7 	c #213510",
"8 	c #6F1808",
"9 	c #801707",
"0 	c #811807",
"a 	c #451509",
"b 	c #090502",
"c 	c #0A0602",
"d 	c #1F3911",
"e 	c #164515",
"f 	c #174415",
"g 	c #123D12",
"h 	c #123C12",
"i 	c #DA0A03",
"j 	c #F60301",
"k 	c #F90201",
"l 	c #FB0100",
"m 	c #FD0100",
"n 	c #341309",
"o 	c #0F0904",
"p 	c #041604",
"q 	c #214516",
"r 	c #174516",
"s 	c #051C05",
"t 	c #133F13",
"u 	c #0D300D",
"v 	c #051D05",
"w 	c #0A290A",
"x 	c #164516",
"y 	c #301F0B",
"z 	c #2C1E0A",
"A 	c #E30802",
"B 	c #FA0200",
"C 	c #F30401",
"D 	c #F70301",
"E 	c #F10401",
"F 	c #541208",
"G 	c #060301",
"H 	c #030501",
"I 	c #164616",
"J 	c #1E3E13",
"K 	c #0D310D",
"L 	c #174616",
"M 	c #041904",
"N 	c #1D3B12",
"O 	c #33220B",
"P 	c #A51406",
"Q 	c #F40301",
"R 	c #F70201",
"S 	c #F50301",
"T 	c #CC0E04",
"U 	c #911207",
"V 	c #171007",
"W 	c #051503",
"X 	c #061804",
"Y 	c #031203",
"Z 	c #020F02",
"` 	c #072107",
" .	c #1B4014",
"..	c #E50802",
"+.	c #F40401",
"@.	c #F20401",
"#.	c #CA0E04",
"$.	c #D80C03",
"%.	c #D20D03",
"&.	c #D90B03",
"*.	c #193310",
"=.	c #19300D",
"-.	c #010701",
";.	c #082107",
">.	c #243911",
",.	c #C41004",
"'.	c #DB0B03",
").	c #B91B07",
"!.	c #193912",
"~.	c #184515",
"{.	c #0E2F0C",
"].	c #000200",
"^.	c #11300D",
"/.	c #0F360F",
"(.	c #184516",
"_.	c #703F13",
":.	c #931807",
"<.	c #F10501",
"[.	c #DE0A02",
"}.	c #D40C03",
"|.	c #DA0B03",
"1.	c #DD0A03",
"2.	c #A2320E",
"3.	c #234516",
"4.	c #144214",
"5.	c #0E310D",
"6.	c #1D4516",
"7.	c #783D12",
"8.	c #EA0602",
"9.	c #EA0702",
"0.	c #B91105",
"a.	c #D60C03",
"b.	c #F90200",
"c.	c #DB0A03",
"d.	c #DC0B03",
"e.	c #DC0A03",
"f.	c #C52008",
"g.	c #753C12",
"h.	c #793D12",
"i.	c #4C4215",
"j.	c #614014",
"k.	c #624014",
"l.	c #663D13",
"m.	c #A4320E",
"n.	c #EA5352",
"o.	c #E05353",
"p.	c #F60201",
"q.	c #2D1D09",
"r.	c #CA0F04",
"s.	c #E30902",
"t.	c #EB0601",
"u.	c #EE0502",
"v.	c #E80702",
"w.	c #DE0A03",
"x.	c #EC0602",
"y.	c #F25352",
"z.	c #CF5453",
"A.	c #E00A02",
"B.	c #F80301",
"C.	c #FF0000",
"D.	c #C81104",
"E.	c #C70301",
"F.	c #F00501",
"G.	c #ED9595",
"H.	c #EE9797",
"I.	c #E80602",
"J.	c #FA0201",
"K.	c #EF0501",
"L.	c #ED0601",
"M.	c #2C0100",
"N.	c #4F0100",
"O.	c #F50401",
"P.	c #390100",
"Q.	c #F34949",
"R.	c #ED9797",
"S.	c #ED9898",
"T.	c #F00502",
"U.	c #EE0501",
"V.	c #020000",
"W.	c #CD0101",
"X.	c #F70300",
"Y.	c #ED9D9D",
"Z.	c #E24A49",
"`.	c #BF1005",
" +	c #C80E04",
".+	c #EB0602",
"++	c #BC1105",
"@+	c #A30501",
"#+	c #B90101",
"$+	c #E00903",
"%+	c #DF0A03",
"&+	c #0D0000",
"*+	c #E98A8A",
"=+	c #EC9A9A",
"-+	c #D84A49",
";+	c #B51205",
">+	c #BD1105",
",+	c #CE0E04",
"'+	c #550000",
")+	c #FE0100",
"!+	c #FC0100",
"~+	c #E90602",
"{+	c #3B0000",
"]+	c #080000",
"^+	c #450100",
"/+	c #E67373",
"(+	c #ED8A8A",
"_+	c #E58A8A",
":+	c #7F1707",
"<+	c #E20903",
"[+	c #F60300",
"}+	c #E99494",
"|+	c #E78A8A",
"1+	c #F80201",
"2+	c #EC9494",
"3+	c #EB9494",
"4+	c #F27372",
"5+	c #D80B03",
"6+	c #FA0100",
"7+	c #EA7D7C",
"8+	c #ED9B9B",
"9+	c #EA8F8F",
"0+	c #100000",
"a+	c #010000",
"b+	c #EE7372",
"c+	c #E77D7D",
"d+	c #EE0601",
"e+	c #E70802",
"f+	c #F80200",
"g+	c #E20802",
"h+	c #430301",
"i+	c #060000",
"j+	c #400100",
"k+	c #E47373",
"l+	c #E67D7C",
"m+	c #BF1004",
"n+	c #ED0501",
"o+	c #B21205",
"p+	c #DD8585",
"q+	c #DB5655",
"r+	c #D70C03",
"s+	c #F00401",
"t+	c #C21004",
"u+	c #ED8F8F",
"v+	c #EB9898",
"w+	c #F08585",
"x+	c #DC0B02",
"y+	c #CC1104",
"z+	c #31210B",
"A+	c #E20902",
"B+	c #C24B49",
"C+	c #EC0601",
"D+	c #B11305",
"E+	c #AD1305",
"F+	c #2F1F0B",
"  . .   + @   . .                     # $                 # $   ",
"  . . @ @ % # . .   $ & * =   - - . . # $     . . *   . . # $   ",
"  ; + > @ # , ' # > ) & . = ; - $ + . + @   ! ~ { ]   $ ^ @     ",
"; $ & ; # @ + + ' $ & * $ / =   ; $ #   ( _ : < [ }   ^ * | $   ",
"  . 1   . . + #     - & # #       $ 2 _ 3 3 4 5   . * 6 7 & |   ",
"    ; 6 > @ @ #   . *     8 8 9 0 a 3 : b c   d e f g h f   '   ",
"  / @ = + ' 1 #     8 i j k l m n 3 o p q r s t u v 4 w x ' $ # ",
"  y z .         8 A j B C D E F G H I J K L 4 s 4 4 M I N ' O + ",
"    = ; @     P Q R S P T P U V W I K X Y Z 4 ` 4 I t  .# # | - ",
"    +   @   ..E +.@.#.$.%.&._ *.r =.v 4 -.4 ;.K I I >.. $ ) 6 % ",
"% %       P C S A ,.&.'.&.).!.~.{.].^.` /.g 4 (.I _.:..   * )   ",
"' '     8 <.D %.,.[.}.|.1.2.3.I 4.h I 5.6.6.7.I 8.k 9.0.    . . ",
"    ' ' a.b.c.}.d.e.[.1.[.,.f.g.I h.i.j.k.l.m.n.o.d.p.B & q.$ . ",
"& @     A @...[.e.[.[.e.r.[.,.s.t.u.v.w.d.r.x.y.z.A.B.C.D.@ ' $ ",
"@     ,.A Q [.[.1.[.d.%.,.#.S B.@...Q j E.c.F.j G.H.I.J.C   - - ",
". .   ,.K.L.,.[.[.w.[.M.4 N.j O.F.j d.P.4 4 S Q.R.S.Q.Q C.  & & ",
". 6   #.T.U.r.[.[.|.#.4 4 V.W...s.E }.4 4 4 X.s.Y.Y.Z.`.T. +    ",
"  . # [..+K.[.1.[.++@+4 4 4 #+$+%+j [.4 4 &+<..+*+=+-+;+j >+    ",
"* $ @ [.U.B.,+r.}.w.@+4 4 '+)+S !+~+w.{+]+^+d.8./+(+_+;+m :+  * ",
"  @ . [.K.C %.[.[.e.1.e.w.1.$+x.@.<+j .+.+[+j 1./+}+|+|.8.>+  . ",
"; . . #.A k @.&.r.[.%.e.d.e.[.F.<.1.w.1+!+D .+s.2+3+4+d.5+>+    ",
"# .   P A 6+v.P ,.[.e.&.w.w.[.t.8.t.m B t.w.j 7+8+9+u.&.S :++ * ",
"        ;+C C ,.T [.,+[.0+4 4 4 4 4 4 a+4 A b+Y.c+d+C @.<.  $ $ ",
"  $ #     e+f+K.d.T g+w.h+&+i+a+4 4 4 i+j+%.k+l+m+<.%+@.>+  . O ",
"  O ' @   P T Q @.+.n+#.#.P T &.}.o+1.p+q+A }.o+@.r+B 5+    $ y ",
"$   . @     #.%.v.s+F.d+t+T P ,.P P u+v+w+P P x+S 1+y+    6 # # ",
"z+#   . @   @   }.A+E t.L.L.d.A.r+..B+i [.a.%.m S 5+* @ @ @     ",
"' #   / - ; & @     o+P j A C+v...t.S 1+@..+T P 8   * .         ",
"; =   $ > @     + .       8 ,.P P P D+E+8   '   ' '   ; @ & '   ",
"  / $       > + $ $ # $ ;     '             '     @ $ z ; @     ",
"  . $     = ' O     @ F+. +   ' . . . * ) .   ' + . $ $   # #   ",
"          ;   ' '   @ &         ; ; ; $ 6 ;   '       * . $ $   "};
