/* XPM */
static char * exit_xpm[] = {
"32 32 152 2",
"  	c #0A4596",
". 	c #0A4696",
"+ 	c #0A4697",
"@ 	c #0A4698",
"# 	c #0A4391",
"$ 	c #0A4494",
"% 	c #0A4392",
"& 	c #09418E",
"* 	c #09418C",
"= 	c #09418D",
"- 	c #0A4290",
"; 	c #0A4390",
"> 	c #0A428F",
", 	c #09408B",
"' 	c #0C50AC",
") 	c #09428E",
"! 	c #0A4594",
"~ 	c #0A499E",
"{ 	c #093E86",
"] 	c #093D85",
"^ 	c #093C82",
"/ 	c #093C81",
"( 	c #093D83",
"_ 	c #0A479A",
": 	c #0A489B",
"< 	c #093E85",
"[ 	c #093D84",
"} 	c #0A418C",
"| 	c #094089",
"1 	c #093A7E",
"2 	c #083878",
"3 	c #083776",
"4 	c #083471",
"5 	c #07336F",
"6 	c #083470",
"7 	c #083573",
"8 	c #0A4492",
"9 	c #083B80",
"0 	c #08397C",
"a 	c #073471",
"b 	c #07336E",
"c 	c #08336F",
"d 	c #083879",
"e 	c #09418B",
"f 	c #0A3776",
"g 	c #10346C",
"h 	c #07326B",
"i 	c #073069",
"j 	c #073068",
"k 	c #073067",
"l 	c #072F64",
"m 	c #072F65",
"n 	c #072F66",
"o 	c #072E64",
"p 	c #07326C",
"q 	c #08336E",
"r 	c #073572",
"s 	c #0A346F",
"t 	c #0E3979",
"u 	c #083572",
"v 	c #072D62",
"w 	c #072D61",
"x 	c #083675",
"y 	c #062C5F",
"z 	c #062A5C",
"A 	c #062959",
"B 	c #0E2C5B",
"C 	c #06295A",
"D 	c #082E62",
"E 	c #08326C",
"F 	c #093673",
"G 	c #072C60",
"H 	c #0A3571",
"I 	c #083777",
"J 	c #05254F",
"K 	c #052249",
"L 	c #05234B",
"M 	c #062754",
"N 	c #062B5C",
"O 	c #072E65",
"P 	c #08387A",
"Q 	c #073470",
"R 	c #07336D",
"S 	c #062B5E",
"T 	c #052045",
"U 	c #052044",
"V 	c #05244D",
"W 	c #093F89",
"X 	c #041C3C",
"Y 	c #031732",
"Z 	c #041936",
"` 	c #051E41",
" .	c #052148",
"..	c #07316A",
"+.	c #041A39",
"@.	c #00040C",
"#.	c #000001",
"$.	c #000104",
"%.	c #031228",
"&.	c #072F67",
"*.	c #093C83",
"=.	c #062755",
"-.	c #000000",
";.	c #03142C",
">.	c #052652",
",.	c #062A5A",
"'.	c #041D3E",
").	c #020B1D",
"!.	c #010715",
"~.	c #062D63",
"{.	c #031833",
"].	c #05234C",
"^.	c #092A59",
"/.	c #09408A",
"(.	c #062856",
"_.	c #052147",
":.	c #052046",
"<.	c #05224A",
"[.	c #062A5B",
"}.	c #082F64",
"|.	c #083067",
"1.	c #0A4595",
"2.	c #073169",
"3.	c #082F65",
"4.	c #0A4799",
"5.	c #0A428E",
"6.	c #0C3269",
"7.	c #072B5C",
"8.	c #092C5E",
"9.	c #0B2F64",
"0.	c #0B3C81",
"a.	c #0C3D82",
"b.	c #0A3A7D",
"c.	c #08397B",
"d.	c #083676",
"e.	c #083674",
"f.	c #083778",
"g.	c #0A4699",
"h.	c #0C4390",
"i.	c #093F88",
"j.	c #0A408B",
"k.	c #083C81",
"l.	c #0A3D83",
"m.	c #0B499D",
"n.	c #09428F",
"o.	c #093E87",
"p.	c #0A418B",
"q.	c #0B489C",
"r.	c #0A4493",
"s.	c #0B499F",
"t.	c #0B4BA2",
"u.	c #0B4AA1",
"                                            .               .   ",
"    +                                               @ @         ",
"      # # .   $ % # & * * = = = * = * * * * * - ; # - > , @   ' ",
"    , ) * , , , , , , , , , , , , , , , , , , , , , , , , ! . ~ ",
"    = * , , , { { { { ] ^ / / ^ ( ^ ( ( ( ( ( { * * , , ,   _ : ",
"    = * , * < ^ / [ ^ / / / / / / / / / / / / / [ } , , , + @ + ",
"    * * , | / / { < / 1 1 2 2 2 1 1 3 4 5 5 6 7 1 ( / | , ) 8   ",
"    * , , [ / 9 0 a b b b b b b b 5 b b b b b c 5 d / / , * %   ",
"    * e , / / f b g b b h i j k l m n o p p q r s t / / , , $   ",
"    * , e / / u b b b o o o o v w o o o o o o n x 2 2 / , ,     ",
"    , e | / / b c b b y z A A A A A A B C D o m E F 7 / | ,     ",
"    * , { / / b c b o G A A A A A A A A A C A G i H I / | , #   ",
"    , , { / 1 b b b y A A A J K J L M A A A N G O 6 P / { , %   ",
"    , e { / 1 Q b R S A A K T U U U U T V A A o m Q d ^ { , % . ",
"  # , * W / / 5 b b C A A T X Y Y Z Y `  .A A o o 5 2 / | , $   ",
"    , = W / / 6 b ..A A A U +.@.#.$.%.X K A A &.o p 1 *.W , $ @ ",
"  $ , * { / / 5 b b A C =.U ` -.-.-.;.X >.A A m o b / / e , $ + ",
"  ) , * ( / / b b b ,.A A U '.).!.!.Y X >.A A n o u / / , ,   + ",
"@ = , e / / / b b b ~.,.A J X Y Y {.X ].A A ^.o o 7 / ^ , ,     ",
"@ , e /./ / / 6 b b m z ,.(.K _.:._.<.J A A [.}.|.d ^ ^ , ,   @ ",
"1.* e * { / / 1 b b 2.A z ,.[.,.C A A C A ,.z 3.n ^ / / , ,   4.",
"# & , 5., / / / b b b z k v ,.z [.A C ,.[.[.A l 6.d / / , e   4.",
"# - * , , / / / b b b 7.[.A A A C A N A 8.8.9.o n 6 / / , e # 4.",
"  - * , ] / / / b b b b b p 2.G y [.y y [.[.j 2.b c 0.[ , * & 4.",
"  ) ) , , / a./ / x 6 b b b b b b b b b b b b b c b./ > , * *   ",
"  # # * e / *./ / / 2 / 3 c.3 u u d.e.2 f.7 a u / / / * , * # g.",
"      h., , = i.) j.[ ( k./ / / / / / / / / / l./ / / [ * * $ m.",
"  + . ; - n.* , , , e , , , e | W { ( ^ o.< o.( o.< p.# * ) # q.",
"  @   , = ) * e , , , , , , , , , , , , , , , , , , , , , ,     ",
"      + $ $ - > > ) ! ; # 1.r.- - > ) = = = ) & > * & # # .     ",
". @ 4.                    .                   . . + +     + @   ",
".     +     +       +   . + + s.t.u.4.@ @ @ @                   "};
