/* XPM */
static char *e9812510cc934d9aa40429b24872c0f8rhSJDp6qkip1DDWb[] = {
/* columns rows colors chars-per-pixel */
"32 32 94 2 ",
"   c black",
".  c #010000",
"X  c #000100",
"o  c #010101",
"O  c #000002",
"+  c #090909",
"@  c #4F5150",
"#  c gray50",
"$  c #FF3B4C",
"%  c #FF3A4D",
"&  c #FF3B4D",
"*  c #FF3C4E",
"=  c #B66D74",
"-  c #B76E75",
";  c #BB6870",
":  c #BE6970",
">  c #C3646C",
",  c #FDAB19",
"<  c #FFAB18",
"1  c #FFAA19",
"2  c #FFAB1A",
"3  c #FFAA1B",
"4  c #FEAC18",
"5  c #FFAC18",
"6  c #FFAC19",
"7  c #FFAD19",
"8  c #FEAC1A",
"9  c #FFAC1B",
"0  c #FFAD1B",
"q  c #FDAA1C",
"w  c #FFAB1C",
"e  c #FEAC1C",
"r  c #DBA03A",
"t  c #DDA23A",
"y  c #DEA33B",
"u  c #DBA03C",
"i  c #DBA13E",
"p  c #FAA723",
"a  c #F9A821",
"s  c #F2A929",
"d  c #B99A5A",
"f  c #BE9859",
"g  c #BD995B",
"h  c #BF995A",
"j  c #BB995C",
"k  c #9B8F79",
"l  c #9F9079",
"z  c #A7936E",
"x  c #AE966A",
"c  c #AD966C",
"v  c #B59660",
"b  c #B69760",
"n  c #B79661",
"m  c #B79861",
"M  c #B79862",
"N  c #B19669",
"B  c #B1966B",
"V  c #A79473",
"C  c #A19275",
"Z  c #A39477",
"A  c #A49379",
"S  c #CB9E4B",
"D  c #CC9D4B",
"F  c #D29F46",
"G  c #C59B51",
"H  c #C49A52",
"J  c #C59B53",
"K  c #C69A53",
"L  c #C19A55",
"P  c #C19A57",
"I  c #C09B57",
"U  c #C09A59",
"Y  c #C09A5B",
"T  c #D9A140",
"R  c #C2957E",
"E  c #CD957A",
"W  c #EB9C75",
"Q  c #EC9D76",
"!  c #EC9C77",
"~  c #ED9E77",
"^  c #8B8B8B",
"/  c #8C8C8A",
"(  c #8D8B8C",
")  c #8B8D8C",
"_  c gray55",
"`  c #8D8D8D",
"'  c #8C8C8E",
"]  c #968E81",
"[  c #958F83",
"{  c #978F82",
"}  c #928E85",
"|  c #928D87",
" . c #918E87",
".. c #BD9480",
/* pixels */
"2 2 e 2 2 2 2 2 2 J ^ ] r 2 2 2 2 2 2 2 2 2 2 2 8 2 J _ n 2 2 2 ",
"8 2 2 2 2 2 2 2 2 2 r ] ^ H 2 2 2 2 2 2 2 8 2 8 2 2 2 M _ A 2 8 ",
"2 2 8 8 2 2 2 2 2 2 2 a g J 2 2 2 2 2 2 2 2 2 2 2 2 8 8 C _ x 2 ",
"2 2 2 2 8 2 2 2 2 2 2 w 2 2 2 2 2 2 2 2 2 2 2 2 2 2 5 2 2 c _ d ",
"2 2 e 2 2 2 2 2 w 2 2 2 2 2 2 8 2 2 2 e 2 2 8 2 2 2 2 8 2 2 n L ",
"D J 2 2 2 8   2 8 2 2 2 2 2   2 2   2 2 2 2 2 < 2     2 2 2 2 2 ",
"N | 2 8 2 2   2 2 2 2 2 2     8 2     2 2 2 2 2     2 2 8 2 2 2 ",
"F _ F 8 2 2     2 2 2 2     2 2 2 8   8 2 2 2 2   2 2 2 2 2 5 2 ",
"2 | N 8 2 2 2     2 2 2   2 2 8 2 2     2 2 2     g h w 2 2 2 2 ",
"2 j L 5 2 2 2 2   2 2   2 2 8 2 2 8 8     2     2 U _ t 2 2 2 2 ",
"2 2 8 2 2 2 5 2         2 2 2 2 2 2 8 8       e 2 2 k C 2 2 2 2 ",
"2 2 2 2 2 2 2 2 2     2 2 2 2 2 e 2 8 2 e     2 2 2 y ( C p 2 2 ",
"2 2 2 2 2 8 8 2       2 8 2 2 2 w 2 2 2       8 2 2 2 z ' ] t w ",
"2 2 8 2 2 2 8 2   8 2   2 2 2 2 2 2 2 2   2     2 2 8 8 T | _ V ",
"2 2 2 2 2 2 2     2 2     2 2 8 2 2 2     2 8   2 2 2 2 2 s k _ ",
"8 5 2 2 2 2     8 2 2 2     e 2 2 2     2 2 2     2 2 2 2 w w B ",
"2 2 2 2 8     2 2 2 2 2 8     2 2 2   2 8 8 2 2     2 2 2 2 2 w ",
"2 2 2 2 8   2 2 2 2 2 2 8 2   2 2 2   2 8 2 2 2 8   2 2 2 2 2 8 ",
"2 2 2 2 2 2 2 2 2 2 2 2 2 8 2 2 2 2 2 2 2 2 2 e 2 2 8 2 2 2 2 5 ",
"2 2 2 & & & & 2 2 2 2 2 2 2 2       2 2 8 2 2 8 2 & & & & 2 2 5 ",
"2 S : & & & & & 2 2 2 8 e 2     Q   O e 8 8 2 2 & & & & & & 2 2 ",
"2 J ' = & * * $ 2 2 2 2     Q Q Q Q       2 8 2 * & & & & & 2 2 ",
"2 2 = _ ; & & * 8 8     ~ ~ ! ! Q Q ~ ~     2 2 & & & & & & 2 2 ",
"2 2 8 = > & & 8 8       O O   O               2 2 & & & & 2 2 2 ",
"2 2 2 2 2 2 2 2 8 2     R ..! ! Q Q Q       2 2 2 2 8 2 2 2 2 8 ",
"2 8 2 2 8 2 2 2 8 e 2 2 @ ^ E ! Q Q     2 2 2 8 8 2 2 2 2 2 w 2 ",
"2 8 2 2 w 2 2 2 2 2 2 2 a ] k O     8 2 8 2 8 L L w 2 2 2 2 2 2 ",
"2 2 2 2 2 2 2 2 2 8 2 2 2 r ^ v 8 8 2 2 2 2 8 U ' L 2 2 2 2 2 2 ",
"2 2 2 w 2 2 2 2 2 2 8 2 2 2 J D 2 2 e 2 2 2 2 2 I / L 2 2 2 2 2 ",
"2 2 J h 2 2 2 2 8 2 8 2 2 e 2 2 2 2 2 w 2 2 2 8 8 I h 2 2 2 w 2 ",
"2 2 g _ j 2 2 2 2 2 2 2 8 8 2 2 2 2 w 2 2 2 2 2 8 8 2 2 2 2 2 e ",
"2 2 8 n ^ g 2 2 2 2 2 2 2 2 2 2 2 8 2 w 2 2 2 2 2 2 2 2 8 2 2 8 "
};
