/* XPM */
static char * player__xpm[] = {
"32 32 179 2",
"  	c #291B09",
". 	c #2F1F0A",
"+ 	c #2C1D0A",
"@ 	c #2D1D0A",
"# 	c #2A1C09",
"$ 	c #2B1C09",
"% 	c #2A1B09",
"& 	c #2D1E0A",
"* 	c #2E1E0A",
"= 	c #33210B",
"- 	c #33220B",
"; 	c #31200B",
"> 	c #2F1E0A",
", 	c #2C1D09",
"' 	c #301F0A",
") 	c #31210B",
"! 	c #32210B",
"~ 	c #35230C",
"{ 	c #34220B",
"] 	c #3B2811",
"^ 	c #523C21",
"/ 	c #4E391F",
"( 	c #5A4326",
"_ 	c #FFC984",
": 	c #D8AA6E",
"< 	c #CCA068",
"[ 	c #D3A56B",
"} 	c #CDA068",
"| 	c #B08958",
"1 	c #B58E5B",
"2 	c #80633D",
"3 	c #30200B",
"4 	c #4E391E",
"5 	c #C79C64",
"6 	c #FAC581",
"7 	c #F4C07E",
"8 	c #FDC882",
"9 	c #FEC883",
"0 	c #FDC782",
"a 	c #FEC983",
"b 	c #DBAC70",
"c 	c #FBC681",
"d 	c #2B1D0A",
"e 	c #F8C37F",
"f 	c #FFC983",
"g 	c #FDC883",
"h 	c #F2BF7D",
"i 	c #EEBB7B",
"j 	c #DFAF72",
"k 	c #E0B073",
"l 	c #8B6C45",
"m 	c #95744A",
"n 	c #FCC682",
"o 	c #5C462C",
"p 	c #44331E",
"q 	c #EBB979",
"r 	c #2F2313",
"s 	c #755A39",
"t 	c #8E6F46",
"u 	c #120C05",
"v 	c #B28B5A",
"w 	c #513F26",
"x 	c #2A1F11",
"y 	c #E1B174",
"z 	c #F8C480",
"A 	c #42321D",
"B 	c #040202",
"C 	c #765B39",
"D 	c #E8B677",
"E 	c #000000",
"F 	c #FCC783",
"G 	c #2C2112",
"H 	c #6C5334",
"I 	c #BA915E",
"J 	c #FCC782",
"K 	c #1E150A",
"L 	c #020101",
"M 	c #C29762",
"N 	c #E6B476",
"O 	c #1C1409",
"P 	c #8C6D46",
"Q 	c #AA8556",
"R 	c #BD9460",
"S 	c #2B1D09",
"T 	c #A48051",
"U 	c #120B05",
"V 	c #090502",
"W 	c #1B1308",
"X 	c #BC935F",
"Y 	c #836641",
"Z 	c #6C5434",
"` 	c #6B5334",
" .	c #F8C380",
"..	c #21170C",
"+.	c #171007",
"@.	c #CDA168",
"#.	c #2B2011",
"$.	c #020201",
"%.	c #896B44",
"&.	c #473621",
"*.	c #050301",
"=.	c #020100",
"-.	c #A37F51",
";.	c #1D1509",
">.	c #261C0E",
",.	c #4F3D24",
"'.	c #080502",
").	c #BE9560",
"!.	c #9D7A4E",
"~.	c #59442A",
"{.	c #3F2F1B",
"].	c #CB9F67",
"^.	c #4A3821",
"/.	c #1F150A",
"(.	c #E2B174",
"_.	c #523F26",
":.	c #483720",
"<.	c #AB8556",
"[.	c #322615",
"}.	c #181007",
"|.	c #564329",
"1.	c #E2B274",
"2.	c #5E492D",
"3.	c #281E0F",
"4.	c #160F06",
"5.	c #725837",
"6.	c #FBC682",
"7.	c #8F7048",
"8.	c #B08A59",
"9.	c #C49A64",
"0.	c #97764C",
"a.	c #F6C27F",
"b.	c #E9B778",
"c.	c #9D7A4F",
"d.	c #F5C17F",
"e.	c #F1BE7C",
"f.	c #8E6E47",
"g.	c #E40000",
"h.	c #B20000",
"i.	c #930000",
"j.	c #6A0502",
"k.	c #850603",
"l.	c #8C0000",
"m.	c #CE0100",
"n.	c #5E1006",
"o.	c #46341F",
"p.	c #382716",
"q.	c #581D0F",
"r.	c #FE0904",
"s.	c #F92F1B",
"t.	c #770000",
"u.	c #C8472C",
"v.	c #FF5F3C",
"w.	c #B7472B",
"x.	c #634C2F",
"y.	c #704329",
"z.	c #780301",
"A.	c #E22112",
"B.	c #7A0000",
"C.	c #FE5635",
"D.	c #BC3620",
"E.	c #462C19",
"F.	c #584429",
"G.	c #7A4F31",
"H.	c #4A0703",
"I.	c #56180C",
"J.	c #890000",
"K.	c #3D2A18",
"L.	c #E3B274",
"M.	c #644D30",
"N.	c #E7B676",
"O.	c #FEC882",
"P.	c #EFBC7B",
"Q.	c #E8B777",
"R.	c #624B2C",
"S.	c #AD8756",
"T.	c #E5B475",
"U.	c #DCAD70",
"V.	c #E3B374",
"  . + +     @ #   $   +   % & + * * + #               $ $       ",
"= . + + $   - *   ; $ %   & > + + + + * . + +   * , & & $ #     ",
"+     # + # + & * * # + + # # ' )       $ + +   * , . & $ & #   ",
"    ' + . * + + ' = ! ~ @ $ $ - *   & . & { ' # $ @   # + %     ",
"  * ! * + + $ ' ! ] ^ / ( _ : < : [ } | 1 2 * * . & & . + & &   ",
"  # # 3 + . = 4 5 6 7 _ 8 9 _ _ _ _ _ 0 a _ 9 <     * #   & *   ",
"@ + . - * { b _ _ a _ c _ _ _ _ _ _ _ _ _ 9 _ _ _ + { +   d % + ",
"@ + 3 ' 2 e _ _ _ _ _ _ _ _ _ _ _ _ _ _ _ _ _ f _ _ . .   $ & @ ",
"    = + g _ _ 9 _ _ _ _ _ _ 9 _ _ _ _ _ a _ _ _ f _ _ 2 ; $ & + ",
"  .   h _ i 0 _ _ _ _ _ j j _ _ k l _ _ _ _ 9 _ m 7 _ n ; $   # ",
"      _ i o p _ _ _ _ q r s g _ t u v _ _ _ 7 w x y f _ z $     ",
"  $ _ _ _ A B C _ a D E E F _ _ _ E G _ _ _ H E I _ _ _ 7 d * + ",
"  $ J _ _ _ K L M N E E D _ _ _ _ 9 E O _ P E Q n _ a _ _ R S $ ",
"  T 9 a _ _ D U V W E X _ _ _ _ _ _ Y O Z p ` _ _ _ _ _ a  .$ $ ",
"  R _ _ _ _ _ X E E m _ _ a _ _ _ _ a ..E +._ _ _ _ 9 _ _ _   + ",
"  @._ _ _ J _ #.$.E %._ _ _ _ _ a _ _ &.*.=._ _ _ _ _ _ _ a -.@ ",
"  6 8 _ _ _ %.;.>.E E _ _ _ _ _ _ _ ,.E %.E '._ _ _ _ _ _ a ).+ ",
"$ D 0 _ f !.u #._ _ E E D _ _ _ _ ~.U {._ ].^./.7 _ _ 9 f _ ).$ ",
"$ (.9 _ _.E :._ _ _ <.E [.7 _ _ m }.%._ _ _ < E |.7 _ g 9 _ R   ",
"& 1.a _ 2.3._ _ 9 _ _ y 4.5.6._ 7.8.0 _ _ _ _ 9.0.7 _ _ 9 c @.  ",
"$ ).a._ _ _ _ _ _ _ _ _ b.b._ _ _ _ _ _ _ a _ _ _ _ _ _ _ 9 @.# ",
"  T c _ _ _ _ _ _ _ 6.J _ g _ _ a _ _ _ _ g _ a _ _ _ _ f J 2 * ",
"  { _ _ _ _ _ _ _ _ c.E E E E E E E E E E d._ _ _ _ 6.9 _ _ $ $ ",
"  * e.9 _ 9 _ _ _ _ f.E g.h.i.j.k.l.m.n.o._ _ _ _ _ _ _ J <     ",
"  * R _ _ _ f _ _ _ D p.q.r.s.t.u.v.w.E %._ _ _ _ _ _ a ).* *   ",
"+ { # @._ 9 a _ _ _ _ x.y.z.A.B.C.D.E.E _ _ _ _ _ _ a e.).. +   ",
"+ - * * e._ _ _ _ _ 9 9 F.G.H.I.J.K.%.9 _ _ _ _ _ 8 ).).    .   ",
"* $ * '   L._ _ _ _ _ _ _ X F.M.{.N.O._ _ _ _ _ e.(.).&     { * ",
", ; > >     a.D _ _ _ _ _ _ _ _ _ _ _ _ _ _ c _ y ).    # + $ ; ",
"@ # + + * = ! * R P._ a _ _ _ 0 0 8 _ _ 6 Q.y ).# *     + $ + + ",
"- ; *   * $ ; *   R.S.T.D U.@.@.@.V.z (.@.    ~ + . * * . ; ! ; ",
"= +         + +       $ $ . & ' #     $ .     + ' * # # . ; +   "};
