/* XPM */
static char * sand__xpm[] = {
"32 32 30 1",
" 	c #291B09",
".	c #2F1F0A",
"+	c #2C1D0A",
"@	c #2D1D0A",
"#	c #2A1C09",
"$	c #2B1C09",
"%	c #2A1B09",
"&	c #2D1E0A",
"*	c #2E1E0A",
"=	c #33210B",
"-	c #33220B",
";	c #31200B",
">	c #2F1E0A",
",	c #2C1D09",
"'	c #301F0A",
")	c #31210B",
"!	c #32210B",
"~	c #30200B",
"{	c #2B1D0A",
"]	c #30200A",
"^	c #31200A",
"/	c #34220B",
"(	c #2B1D09",
"_	c #2E1F0A",
":	c #34230B",
"<	c #35230C",
"[	c #301F0B",
"}	c #2C1E0A",
"|	c #2D1D09",
"1	c #32200B",
" .++  @# $ + %&+**+#       $$   ",
"=.++$ -* ;$% &>++++*.++ *,&&$#  ",
"+  #+#+&**#++##')   $ + *,.&$&# ",
"  '+.*++*, %%$$-* &&#&##$@ #+%  ",
" *!*++$ $&%  $$%$$**#&**.&&.+&& ",
" ##~++$+$$$;)&%{  ++      *# &* ",
"@+.-*= +  ,]^&    $  #*+.+/+ {%+",
"@+~'%*  {%&#%(& $$,, # +'#.. $&@",
"  =+*.+ %   {*&_.&$. &#{+*&*;$&+",
" . %>^*$+  @+ #;.*#]   #{,&*;$ #",
"    ;;$$@*+!]  ,#*#=  ..$$&$$$  ",
" $$   ,;_*+=:<;&+$/*,++ $#$  {*+",
" $&%-.+$*#  $'''*%-[.#   *$  #($",
" $&++$* *}{ &,+:* ].##** . {% $$",
"   @.'<  &{ +*.*<'/+  ++   %#+ +",
" &#+&|*. ;]  .'*,;'&+$&  $$+&# @",
" # +%+ '@ .    %&& %+&##,$**+ ++",
"$$ @.& {+%#* !1 +*  .+ ,; ++.#=$",
"$$%+#*  * #[*&!$ +  $ *#,#+{$*  ",
"&* @    # ..*#=+..$& +-,*$++.#* ",
"$&+= +%&.=+*#.-*..$&.  $*#$  #*#",
" *#++  ,;. +# %% ## < <++ #** $*",
" /.;;++=#  ##$'$.&{#+ $%@+#-* $$",
" *,%$* +*$ .[$'%+*.#{   ;; ~.   ",
" *#++.##*$ $(  @++% ++% '^  +** ",
"+/#.&.&#*+*];+ $@&% ++.  .  &.+ ",
"+-**&&+#*+ .;*  ++   *. %<(&  . ",
"*$*' .< ]@  $}@ ++  $&-* '(&  /*",
",;>>   $']  .@$       >=    #+$;",
"@#++*=!*#* '!   @&#&  +<    +$++",
"-;* *$;* . ,.&+;[@ $+  < .**.;!;",
"=+    ++   $$.&'#  $.   **##.;+ "};
