/* XPM */
static char * sand_xpm[] = {
"32 32 239 2",
"  	c #E3D49E",
". 	c #E1D19C",
"+ 	c #DECE97",
"@ 	c #E0D099",
"# 	c #E2D39D",
"$ 	c #E1D19A",
"% 	c #DECE98",
"& 	c #E2D29C",
"* 	c #E1D29C",
"= 	c #DECF99",
"- 	c #E1D29B",
"; 	c #DFCF98",
"> 	c #E2D29A",
", 	c #E0D09A",
"' 	c #E5D7A2",
") 	c #EADEA8",
"! 	c #E7DBA6",
"~ 	c #EADEA9",
"{ 	c #EBDFAA",
"] 	c #EBDFA9",
"^ 	c #EADEAA",
"/ 	c #EADDA7",
"( 	c #EBDEA9",
"_ 	c #E4D7A2",
": 	c #EBE0AA",
"< 	c #ECE0AB",
"[ 	c #E6DAA5",
"} 	c #E8DAA4",
"| 	c #E2D59F",
"1 	c #E1D199",
"2 	c #E0D19A",
"3 	c #DFD099",
"4 	c #E3D39C",
"5 	c #E2D39C",
"6 	c #E0D19B",
"7 	c #E5D7A3",
"8 	c #ECE0AC",
"9 	c #E8DCA7",
"0 	c #EBE0AB",
"a 	c #E7DCA8",
"b 	c #E9DEA7",
"c 	c #ECE0AA",
"d 	c #E8DBA7",
"e 	c #E6D9A5",
"f 	c #E2D49D",
"g 	c #DFD09A",
"h 	c #DFCF99",
"i 	c #E2D19A",
"j 	c #E1D19B",
"k 	c #E4D69F",
"l 	c #E9DDA8",
"m 	c #E8DBA6",
"n 	c #EADFAB",
"o 	c #ECE1AC",
"p 	c #E9DDA7",
"q 	c #EADEA7",
"r 	c #E8DAA6",
"s 	c #E9DEA9",
"t 	c #E6D8A3",
"u 	c #E4D6A0",
"v 	c #E5D7A1",
"w 	c #E4D59E",
"x 	c #E0D098",
"y 	c #E4D5A0",
"z 	c #E4D59F",
"A 	c #EADDAB",
"B 	c #ECE2AD",
"C 	c #E8DCA9",
"D 	c #EADFAC",
"E 	c #EADFAA",
"F 	c #EADFA9",
"G 	c #E5D9A4",
"H 	c #E9DCA6",
"I 	c #E6D8A2",
"J 	c #E2D29D",
"K 	c #E2D39E",
"L 	c #E2D29B",
"M 	c #E0CF98",
"N 	c #E3D39D",
"O 	c #E4D39D",
"P 	c #E5D8A2",
"Q 	c #EBE0AD",
"R 	c #EBE0AC",
"S 	c #ECE0AD",
"T 	c #EDE1AD",
"U 	c #ECE1AD",
"V 	c #E9DEAA",
"W 	c #E8DCA8",
"X 	c #E7DAA5",
"Y 	c #E2D4A0",
"Z 	c #E3D49D",
"` 	c #E0D09B",
" .	c #E3D39E",
"..	c #E0D29C",
"+.	c #E7D9A3",
"@.	c #E6DAA6",
"#.	c #E8DCA6",
"$.	c #EBDFAB",
"%.	c #E9DDAA",
"&.	c #E7DBA7",
"*.	c #E7D8A1",
"=.	c #E3D49F",
"-.	c #DFCF97",
";.	c #DCCC95",
">.	c #DECF98",
",.	c #EADDA8",
"'.	c #EDE1AC",
").	c #EDE2AD",
"!.	c #E3D6A1",
"~.	c #E4D6A1",
"{.	c #E4D7A1",
"].	c #E2D49E",
"^.	c #E1D299",
"/.	c #E4D49D",
"(.	c #E2D19C",
"_.	c #E1D39D",
":.	c #E1D29A",
"<.	c #ECDFA9",
"[.	c #E9DCA7",
"}.	c #E0D29B",
"|.	c #DDCD95",
"1.	c #E5D59F",
"2.	c #E0CF99",
"3.	c #E6D9A3",
"4.	c #EADDA6",
"5.	c #E5D8A3",
"6.	c #E9DDA9",
"7.	c #DECD96",
"8.	c #E0D097",
"9.	c #E6D9A4",
"0.	c #EADDA9",
"a.	c #E8DDA6",
"b.	c #E7DAA4",
"c.	c #DECE96",
"d.	c #E1D29D",
"e.	c #E5D9A5",
"f.	c #E9DEA8",
"g.	c #EBDEAA",
"h.	c #EDE2AC",
"i.	c #E6D7A2",
"j.	c #E5D6A0",
"k.	c #E0D199",
"l.	c #E3D29C",
"m.	c #E4D49F",
"n.	c #E2D19B",
"o.	c #E1D39C",
"p.	c #E7DBA5",
"q.	c #E3D59F",
"r.	c #DFD09B",
"s.	c #E1D098",
"t.	c #E5D9A3",
"u.	c #EBDEA8",
"v.	c #E7D9A2",
"w.	c #E5D8A0",
"x.	c #DAC991",
"y.	c #EBE1AD",
"z.	c #E9DFAA",
"A.	c #EBDFAC",
"B.	c #DDCC95",
"C.	c #E0CF97",
"D.	c #DCCC93",
"E.	c #DECF97",
"F.	c #DFCE97",
"G.	c #E6DAA4",
"H.	c #E7DCA7",
"I.	c #E7D8A2",
"J.	c #E3D5A1",
"K.	c #DFCE96",
"L.	c #E2D199",
"M.	c #E8DCA5",
"N.	c #E4D8A3",
"O.	c #E2D6A0",
"P.	c #DFCF96",
"Q.	c #DCCD94",
"R.	c #E2D39B",
"S.	c #E1D198",
"T.	c #EDE0AC",
"U.	c #E5D6A1",
"V.	c #E1D19D",
"W.	c #DCCD95",
"X.	c #EADEAB",
"Y.	c #E6D8A4",
"Z.	c #E2D49F",
"`.	c #DECF9A",
" +	c #E8DAA3",
".+	c #E6D9A2",
"++	c #E8DBA5",
"@+	c #E9DCA4",
"#+	c #E1D09A",
"$+	c #E4D59D",
"%+	c #E3D5A0",
"&+	c #E5D7A0",
"*+	c #E3D29B",
"=+	c #E8DDA7",
"-+	c #ECDFAB",
";+	c #E8DDA9",
">+	c #E1D49D",
",+	c #DACB94",
"'+	c #E4D39E",
")+	c #E9DFAB",
"!+	c #EBDEAC",
"~+	c #DBCB94",
"{+	c #DECE99",
"]+	c #E7DBA8",
"^+	c #EBE1AC",
"/+	c #E6D7A1",
"(+	c #E2D39A",
"_+	c #DBCC93",
":+	c #E1D099",
"<+	c #E7D9A4",
"[+	c #E0CF96",
"}+	c #EDE0AE",
"|+	c #E8DDA8",
"1+	c #EDE1AB",
"2+	c #DECF96",
"3+	c #DDCE97",
"4+	c #EDE1AE",
"5+	c #DCCB94",
"6+	c #ECDFAA",
"7+	c #E7DAA6",
"8+	c #E2D59C",
"9+	c #E4D49E",
"0+	c #E3D49C",
"a+	c #DDCD97",
"b+	c #E3D59E",
"c+	c #E0D09C",
"d+	c #DDCD96",
"e+	c #E3D39B",
"f+	c #E7DCA6",
"g+	c #E3D7A2",
"h+	c #EADCA5",
"i+	c #E7D8A3",
"j+	c #E1D49F",
"k+	c #EADFA8",
"l+	c #DFD19C",
"m+	c #E5D8A1",
"n+	c #E4D7A0",
"o+	c #D9CA93",
"p+	c #E2D69F",
"  . + @ + # $ % @ & * = - ; > , ' ) ! ~ { ] ^ / ) ( _ : < [ } | ",
"1 2 3 - + , $ * 2 4 ; 5 6 & 7 ( ^ 8 9 0 a ~ 8 b { c d 9 e f g # ",
"h 2 i # 4 # 4 j k l m d n o 8 p q r c : s 9 e t u ' v w x h 1 3 ",
"y 3 j z j & 2 ! A B l C D E ~ F < G l H I t J K 5 # L M > N L j ",
"L L O # h P Q R S 8 T U { 0 V c W X Y Z . - @ ` L  .# . 5 ; , 3 ",
"1 ..+.@.#.U T $.$.%.< &.#._ P *.=.# 3 $ M J @ j 6 y & > -.;.1 >.",
",.8 '.C $.] ).$.F l G X !.~.{.].-.; ^.L 4 - * & j # /.(._.@ :.I ",
"m <.( [.~ 9 T { m P :.z }.% |.$ N L $ j + 1.@ , & h 2.5 3.4.o 9 ",
"5.c 0 ~ 6.~ X !.* @ j g 7.% 8.1 M $ h * :.3 z w * 9.0.l 0 a.,.~ ",
"#.p 3.b.{.9.* # & c.# , # j 1 @ j d.L ..[ e.f.p #.o g.s ~ #.h.G ",
"P r i.j.  k.l.- m.- n.o.# N L d.@ I E R U { F < p./ { ,.< G f.q.",
"5 1 x ; , L x r.s.$ @ & 5 6 $ w [.{ $.< ^ : { ~ l t.l u.$.v.w.}.",
"> x.M x $ n.; i L = }.z u P ~ 0 y.z.0 F A.8 H ,.5.p.( m I # - 5 ",
"B.4 C.D.5 E.F.>.G.{ { ~ H.$.l ^ [.{ < l 6.5.I.| +.J.q.- :.L K.c.",
"- |.L.> j 3 @ ) ~ ) s T { 8 M.: l $.N.O.=.g * N # 4 > @ ;.2 P.|.",
"|.x $ |.].b.6.,.o 9 [ s z.$.( ~ m t.6 :.Q.y 3 $ R.x 1 $ k.P.L S.",
":.v.P T.g.: l P F l '.E e.P ' I U._.. x 1 V.4 # F.@ >.>.; W.s.s.",
": l s ~ ~ { : ^ X.#.t Y.P 3.j.Z.Z j 3 ; & $ ` h `.- 1 ; $ L  +.+",
"{ < 0.$.{ { 0 ~ 5.- 2 ` - @ & C.& * & * @ - x x + W.5 P ++@+! p.",
"n F G [.p 3.G.z L 3 #+& :.; c.N y @ & $ + $+*.++++5.8 W ( ( b E ",
"X .+%+b.&+y - + i L @ *+n.$ 6 - 5 f ' d [.t.l G { =+-+q q } 9.[.",
"u 5 k.& 2 k.* $ @ > L |.L 4 4 ; w e E [ < < l { R 8 ;+~ H ( #.>+",
"% - ; ,+; $ @ $ $ '+L j k.$ # e 6.0 )+F $.l s !+T 9 R ~ 3./.L N ",
"l.~+L # . $ ; 5 {+U.' t m X ,.]+X.^+m E F l +.e ++_ m /+(+1 |._+",
":+. - /.6 j >.Z p $.p $.0 ^ 8 E { 8 < ~ e | <+z y 3 L + > [++ P.",
"N  .j   $ # +.{ ! 6.}+|+1+8 l ~ ^ 6.+.z q.6 F.& 2 & 4 > > P.2+#+",
"$ 3+    X ) 0 ^ 0 4+T S 9 &.[ m !.K # & & R.5+, Z 3+$ L ; $ E.5 ",
"++H -+{ $.E 6+o { V l 6.! <+7+8+9+L k.+ $ 0+$ }.- a+M ; 2 $ j b+",
"( { $.=+U =+~ 9 9 @.X I _ 5.j L $ @ - , N ; + c+L -.d+-.e+y [.F ",
"0 f+p { X.7+! t f g ].k * , & c.  4 L , j $ L * $ , w 5.s W l ~ ",
"~ g+h+5.!.q.i+L 6 j # N - j n.j (.$ 3 k.2 j+! 9 !.( ~.4.k+! ,.$.",
"+.l+m+n+y 2 > @ % a+, - # @ 6 3 o+N +.] < '.E c s H p v.E [ e p+"};
