/* XPM */
static char * block__xpm[] = {
"32 32 35 1",
" 	c #626262",
".	c #5D5D5D",
"+	c #616161",
"@	c #5F5F5F",
"#	c #636363",
"$	c #5E5E5E",
"%	c #575757",
"&	c #585858",
"*	c #5B5B5B",
"=	c #5A5A5A",
"-	c #595959",
";	c #4E4E4E",
">	c #4B4B4B",
",	c #484848",
"'	c #606060",
")	c #5C5C5C",
"!	c #535353",
"~	c #545454",
"{	c #555555",
"]	c #4D4D4D",
"^	c #4A4A4A",
"/	c #414141",
"(	c #565656",
"_	c #4F4F4F",
":	c #424242",
"<	c #474747",
"[	c #525252",
"}	c #454545",
"|	c #444444",
"1	c #434343",
"2	c #505050",
"3	c #4C4C4C",
"4	c #494949",
"5	c #464646",
"6	c #515151",
" .+  @+#+@$$$@$..$..%%&*==&*-;>,",
"'..)...$).$$..$..)..=%.=-!~{!]^/",
".).))$'++''@*=@@@@@$)=-.){!!(_^/",
"#.@..'+++'*')*@+@@$=()'!%-{~~;^/",
"))){(==@++*+@@))=&)%(*=%&=(~~;,:",
"))))$&))*$*.-%@*&&&=&*!~&&&&{><:",
".))=&&%=%=*&&-%&&%%&%~%&%&&%!><:",
")))&%=-&&)-=&*=&*)&%%{{!&{[([;}|",
" -)&-&&&&=-.%%=~[{-%!!!(!!(![^}1",
"@=-%&-=%&%-)!!{{&&&&!{![%-(=~,}1",
" *)%&-%%&(~!![!~!!!-![[~-%((!,<:",
"#=~%&(%{{{!~![[![[[[[[[[!!![[><:",
"#%~%&~{!!!!{%!!![![!!{~!!!!!];,:",
"=[2_[]];]]]]3];]3_]]33>^^3>444<:",
"4||:||||:::::://///////////::::|",
"}11:1||}555555<|}555555555<}}5<1",
"-%~(![[!!!!!!^<|<_[[[[[[>>>;6___",
").)(&.)))@$**2>/^%()-((*%%)@.)==",
"'..*-@)))).*-^51^&({&=&{-=$$$$$$",
"+)))*@.-*))*-^51>!{{==$(%)$$=%.'",
"-)@)=--=&%&&-^4:;[{{&{)=&*$=-(. ",
"#.&&-&&%%&&--,<1;!{&&%-%&&{&&{-*",
")*%&&&&--&%&-,<1;~{{%&&&%&(-=&))",
")=%%%&%--%&{~,<1;({{)%&(&%%-(({&",
"&&({%(%%(!~!%,<133%(=)&&~({!~!&&",
"&%~!{{[{[[~([,<1,]{(.-%![%~!{!{~",
"%%~[[{{[!%~%~><1^2%~%%~!~(![!!![",
"=&~![[~[![![[3|:46{[{[[{~~!~({!!",
"*&{[!!!!!~(=(_,146{{--{!(((_~6;;",
"3]33];;;;>>^^4}|4^>^^>>>,,,_^_[;",
"}}///:::::155|1:}}<<}:<<1://////",
"<5555}}}}}}11|::::111111}}555555"};
