/* XPM */
static char *_58f2b54750e4cf9e230ddb2961f0291eo1NKtcOgTSyhlHe[] = {
/* columns rows colors chars-per-pixel */
"32 32 75 1 ",
"  c #5A5A5A",
". c #5B5B5B",
"X c gray36",
"o c #5D5D5D",
"O c gray37",
"+ c #5F5F5F",
"@ c #606060",
"# c gray38",
"$ c #626262",
"% c gray39",
"& c #646464",
"* c #656565",
"= c gray40",
"- c #676767",
"; c #686868",
": c DimGray",
"> c #6A6A6A",
", c gray42",
"< c #6C6C6C",
"1 c #6D6D6D",
"2 c gray43",
"3 c #6F6F6F",
"4 c gray44",
"5 c #717171",
"6 c #727272",
"7 c gray45",
"8 c #747474",
"9 c gray46",
"0 c #767676",
"q c #777777",
"w c gray47",
"e c #797979",
"r c gray48",
"t c #7B7B7B",
"y c #7C7C7C",
"u c gray49",
"i c #7E7E7E",
"p c gray50",
"a c #808080",
"s c #818181",
"d c gray51",
"f c #838383",
"g c #848484",
"h c gray52",
"j c #868686",
"k c gray53",
"l c #888888",
"z c #898989",
"x c gray54",
"c c #8B8B8B",
"v c gray55",
"b c #8D8D8D",
"n c #8E8E8E",
"m c gray56",
"M c #909090",
"N c gray57",
"B c #929292",
"V c #939393",
"C c gray58",
"Z c #959595",
"A c gray59",
"S c #979797",
"D c #989898",
"F c gray60",
"G c #9A9A9A",
"H c #9B9B9B",
"J c gray61",
"K c #9D9D9D",
"L c gray62",
"P c #9F9F9F",
"I c #A0A0A0",
"U c gray63",
"Y c #A2A2A2",
"T c gray64",
"R c #A4A4A4",
/* pixels */
"RPFPIIIPBZIIFZZZZZZZZFFFnBBBnr@@",
"IFBBZZZZznZBBBBnzznnnznnzzkkk9@-",
"PZzkzkzk9izzzkkz49iiiirriiifi4++",
"PZzzzkzkiikkkkzz9rifiirrfirir1-@",
"Bzrrrrirkiiiiffiikkkfiiifr941- +",
"Zz99riiikfirrrirrifiiriiiiir,-++",
"Fk99ifkkiiiirrrrrrrrriififkk4-+@",
"Fz99ifkkiiiirrrrrrrrrriiifzz1-@@",
"Zzi9rrrrrrrrkkkkkzkkzi44ikkk4,+ ",
"Zzrrrr9rrr9rfkfffffffir9riff4,++",
"Zzr9r9rrir99iffir9r94riirrr9,-+@",
"Zz9rrrrrir99iirrrrrr4riir9r9,,@@",
"Bf99999411,,1111494941--14991-+@",
"i9,1411,-,--,,-,11111,@-,,111,@@",
"++  +++   ++ +   +  @@@@++@@+ ++",
"++++++++@+++ ++++@@@@@--@@@@@++@",
"ZZZZFZFFFPPPZi@+IIPPPBnnZFFFBZPF",
"nnznnnzznBnnk9@@PFBBBnzknBBBkzBB",
"rr9rfr49ifii4- @Bnzkfriirr9r9rrr",
"rrrri949iiii1-+@Znkkiiiir9rrrrr9",
"zkkfi994rfkk9,@-Zniiiifirfkfrrrr",
"zkkfr9irriff9,@@Pnffrrriifkfrrrr",
"iiififzzkkfi1-+@FZkk9999iiifiirr",
"ffiiffkkkfir1-+@PBkk9494fiifii9r",
"rrrrrizzzfrr,- @Zziriiiirrrrrrrr",
"irrrriikfi99,@+@Zziififiiirrir9r",
"fifirrrrr994--+@Bnkzzfiikf9rkf49",
"iiiir9rrr999,-++Znkzkfifkfrrkf99",
",,,,,,,1,14941--zi449994111,,1--",
"------,,-,141-++r4-,4411,-,-@---",
"@++++@++@@@+@+ +++ @@@@+@++  +++",
"@@-@@@@+@@@+ +++ ++@-@@@@++ + ++"
};
