/* XPM */
static char * collectible_xpm[] = {
"32 32 226 2",
"  	c #291B09",
". 	c #231709",
"+ 	c #150E05",
"@ 	c #1F1507",
"# 	c #271A09",
"$ 	c #1E1509",
"% 	c #1B1309",
"& 	c #070402",
"* 	c #050301",
"= 	c #181007",
"- 	c #110B05",
"; 	c #000000",
"> 	c #1F1509",
", 	c #232F0E",
"' 	c #213510",
") 	c #6F1808",
"! 	c #801707",
"~ 	c #811807",
"{ 	c #451509",
"] 	c #090502",
"^ 	c #0A0602",
"/ 	c #1F3911",
"( 	c #164515",
"_ 	c #174415",
": 	c #123D12",
"< 	c #123C12",
"[ 	c #DA0A03",
"} 	c #F60301",
"| 	c #F90201",
"1 	c #FB0100",
"2 	c #FD0100",
"3 	c #341309",
"4 	c #0F0904",
"5 	c #041604",
"6 	c #214516",
"7 	c #174516",
"8 	c #051C05",
"9 	c #133F13",
"0 	c #0D300D",
"a 	c #051D05",
"b 	c #0A290A",
"c 	c #164516",
"d 	c #E30802",
"e 	c #FA0200",
"f 	c #F30401",
"g 	c #F70301",
"h 	c #F10401",
"i 	c #541208",
"j 	c #060301",
"k 	c #030501",
"l 	c #164616",
"m 	c #1E3E13",
"n 	c #0D310D",
"o 	c #174616",
"p 	c #041904",
"q 	c #1D3B12",
"r 	c #A51406",
"s 	c #F40301",
"t 	c #F70201",
"u 	c #F50301",
"v 	c #CC0E04",
"w 	c #911207",
"x 	c #171007",
"y 	c #051503",
"z 	c #061804",
"A 	c #031203",
"B 	c #020F02",
"C 	c #072107",
"D 	c #1B4014",
"E 	c #E50802",
"F 	c #F40401",
"G 	c #F20401",
"H 	c #CA0E04",
"I 	c #D80C03",
"J 	c #D20D03",
"K 	c #D90B03",
"L 	c #193310",
"M 	c #19300D",
"N 	c #010701",
"O 	c #082107",
"P 	c #1C3E13",
"Q 	c #C41004",
"R 	c #DB0B03",
"S 	c #B91B07",
"T 	c #193912",
"U 	c #184515",
"V 	c #0E2F0C",
"W 	c #000200",
"X 	c #11300D",
"Y 	c #0F360F",
"Z 	c #184516",
"` 	c #703F13",
" .	c #F10501",
"..	c #DE0A02",
"+.	c #D40C03",
"@.	c #DA0B03",
"#.	c #DD0A03",
"$.	c #A2320E",
"%.	c #234516",
"&.	c #144214",
"*.	c #0E310D",
"=.	c #1D4516",
"-.	c #783D12",
";.	c #EA0602",
">.	c #EA0702",
",.	c #B91105",
"'.	c #D60C03",
").	c #F90200",
"!.	c #DB0A03",
"~.	c #DC0B03",
"{.	c #DC0A03",
"].	c #C52008",
"^.	c #753C12",
"/.	c #793D12",
"(.	c #4C4215",
"_.	c #614014",
":.	c #624014",
"<.	c #663D13",
"[.	c #A4320E",
"}.	c #EA5352",
"|.	c #E05353",
"1.	c #F60201",
"2.	c #CA0F04",
"3.	c #E30902",
"4.	c #EB0601",
"5.	c #EE0502",
"6.	c #E80702",
"7.	c #DE0A03",
"8.	c #EC0602",
"9.	c #F25352",
"0.	c #CF5453",
"a.	c #E00A02",
"b.	c #F80301",
"c.	c #FF0000",
"d.	c #D80B03",
"e.	c #C70301",
"f.	c #F00501",
"g.	c #ED9595",
"h.	c #EE9797",
"i.	c #E80602",
"j.	c #FA0201",
"k.	c #EF0501",
"l.	c #ED0601",
"m.	c #2C0100",
"n.	c #4F0100",
"o.	c #F50401",
"p.	c #390100",
"q.	c #F34949",
"r.	c #ED9797",
"s.	c #ED9898",
"t.	c #F00502",
"u.	c #EE0501",
"v.	c #020000",
"w.	c #CD0101",
"x.	c #F70300",
"y.	c #ED9D9D",
"z.	c #E24A49",
"A.	c #BF1005",
"B.	c #C80E04",
"C.	c #EB0602",
"D.	c #BC1105",
"E.	c #A30501",
"F.	c #B90101",
"G.	c #E00903",
"H.	c #DF0A03",
"I.	c #0D0000",
"J.	c #E98A8A",
"K.	c #EC9A9A",
"L.	c #D84A49",
"M.	c #B51205",
"N.	c #BD1105",
"O.	c #CE0E04",
"P.	c #550000",
"Q.	c #FE0100",
"R.	c #FC0100",
"S.	c #E90602",
"T.	c #3B0000",
"U.	c #080000",
"V.	c #450100",
"W.	c #E67373",
"X.	c #ED8A8A",
"Y.	c #E58A8A",
"Z.	c #7F1707",
"`.	c #E20903",
" +	c #F60300",
".+	c #E99494",
"++	c #E78A8A",
"@+	c #F80201",
"#+	c #EC9494",
"$+	c #EB9494",
"%+	c #F27372",
"&+	c #FA0100",
"*+	c #EA7D7C",
"=+	c #ED9B9B",
"-+	c #EA8F8F",
";+	c #100000",
">+	c #010000",
",+	c #EE7372",
"'+	c #E77D7D",
")+	c #EE0601",
"!+	c #E70802",
"~+	c #F80200",
"{+	c #E20802",
"]+	c #430301",
"^+	c #060000",
"/+	c #400100",
"(+	c #E47373",
"_+	c #E67D7C",
":+	c #BF1004",
"<+	c #ED0501",
"[+	c #B21205",
"}+	c #DD8585",
"|+	c #DB5655",
"1+	c #D70C03",
"2+	c #F00401",
"3+	c #C21004",
"4+	c #ED8F8F",
"5+	c #EB9898",
"6+	c #F08585",
"7+	c #DC0B02",
"8+	c #E00902",
"9+	c #E20902",
"0+	c #C24B49",
"a+	c #EC0601",
"b+	c #B11305",
"c+	c #AD1305",
"                                                                ",
"                                                                ",
"                                            . + @ #             ",
"                                        $ % & * = $             ",
"                                    . % - - ; >       , '       ",
"                          ) ) ! ~ { - & ] ^   / ( _ : < _       ",
"                    ) [ } | 1 2 3 - 4 5 6 7 8 9 0 a ; b c       ",
"                ) d } e f g h i j k l m n o ; 8 ; ; p l q       ",
"              r s t u r v r w x y l n z A B ; C ; l 9 D         ",
"            E h F G H I J K % L 7 M a ; N ; O n l l P           ",
"          r f u d Q K R K S T U V W X C Y : ; Z l ` r           ",
"        )  .g J Q ..+.@.#.$.%.l &.< l *.=.=.-.l ;.| >.,.        ",
"        '.).!.+.~.{...#...Q ].^.l /.(._.:.<.[.}.|.~.1.e         ",
"        d G E ..{.....{.2...Q 3.4.5.6.7.~.2.8.9.0.a.b.c.d.      ",
"      Q d s ....#...~.J Q H u b.G E s } e.!.f.} g.h.i.j.f       ",
"      Q k.l.Q ....7...m.; n.} o.f.} ~.p.; ; u q.r.s.q.s c.      ",
"      H t.u.2.....@.H ; ; v.w.E 3.h +.; ; ; x.3.y.y.z.A.t.B.    ",
"      ..C.k...#...D.E.; ; ; F.G.H.} ..; ; I. .C.J.K.L.M.} N.    ",
"      ..u.b.O.2.+.7.E.; ; P.Q.u R.S.7.T.U.V.~.;.W.X.Y.M.2 Z.    ",
"      ..k.f J ....{.#.{.7.#.G.8.G `.} C.C. +} #.W..+++@.;.N.    ",
"      H d | G K 2...J {.~.{...f. .#.7.@+R.g C.3.#+$+%+~.d.N.    ",
"      r d &+6.r Q ..{.K 7.7...4.;.4.2 e 4.7.} *+=+-+5.K u Z.    ",
"        M.f f Q v ..O...;+; ; ; ; ; ; >+; d ,+y.'+)+f G  .      ",
"          !+~+k.~.v {+7.]+I.^+>+; ; ; ^+/+J (+_+:+ .H.G N.      ",
"          r v s G F <+H H r v K +.[+#.}+|+d +.[+G 1+e d.        ",
"            H J 6.2+f.)+3+v r Q r r 4+5+6+r r 7+u @+8+          ",
"                +.9+h 4.l.l.~.a.1+E 0+[ ..'.J 2 u d.            ",
"                    [+r } d a+6.E 4.u @+G C.v r )               ",
"                          ) Q r r r b+c+)                       ",
"                                                                ",
"                                                                ",
"                                                                "};
