/* XPM */
static char * exit__xpm[] = {
"32 32 211 2",
"  	c #291B09",
". 	c #2F1F0A",
"+ 	c #2C1D0A",
"@ 	c #2D1D0A",
"# 	c #2A1C09",
"$ 	c #2B1C09",
"% 	c #2A1B09",
"& 	c #2D1E0A",
"* 	c #2E1E0A",
"= 	c #33210B",
"- 	c #33220B",
"; 	c #31200B",
"> 	c #2F1E0A",
", 	c #2C1D09",
"' 	c #301F0A",
") 	c #31210B",
"! 	c #32210B",
"~ 	c #30200B",
"{ 	c #2F2143",
"] 	c #211E85",
"^ 	c #1D1A88",
"/ 	c #1F1F90",
"( 	c #23238B",
"_ 	c #20208B",
": 	c #202085",
"< 	c #20208E",
"[ 	c #211868",
"} 	c #1D1B8B",
"| 	c #22228C",
"1 	c #212187",
"2 	c #202082",
"3 	c #1F1F7C",
"4 	c #1E1E79",
"5 	c #202081",
"6 	c #1E1E7B",
"7 	c #222289",
"8 	c #1F1F8E",
"9 	c #34220B",
"0 	c #2B1D0A",
"a 	c #1A198C",
"b 	c #212183",
"c 	c #1E1E78",
"d 	c #1C1C74",
"e 	c #1D1D74",
"f 	c #1C1C72",
"g 	c #1C1C71",
"h 	c #1D1D75",
"i 	c #1F1F7B",
"j 	c #1E1E8D",
"k 	c #1E1D8B",
"l 	c #1C1C6F",
"m 	c #1B1B6E",
"n 	c #1B1B6F",
"o 	c #23238C",
"p 	c #31200A",
"q 	c #222288",
"r 	c #1E1E77",
"s 	c #1A1A67",
"t 	c #17175B",
"u 	c #151553",
"v 	c #141452",
"w 	c #141451",
"x 	c #141453",
"y 	c #141450",
"z 	c #151555",
"A 	c #191965",
"B 	c #1E1E7A",
"C 	c #24248F",
"D 	c #222187",
"E 	c #1F1F7D",
"F 	c #1B1B6A",
"G 	c #1A1A6A",
"H 	c #13134E",
"I 	c #181861",
"J 	c #1A1A69",
"K 	c #25206D",
"L 	c #1D1D73",
"M 	c #1B1B6B",
"N 	c #121247",
"O 	c #111146",
"P 	c #0F0F3A",
"Q 	c #0E0E38",
"R 	c #0C0C32",
"S 	c #0D0D33",
"T 	c #0F0F3C",
"U 	c #262068",
"V 	c #1A1A6B",
"W 	c #13134D",
"X 	c #0F0F3D",
"Y 	c #151554",
"Z 	c #2B1D09",
"` 	c #26206D",
" .	c #161658",
"..	c #0F0F3E",
"+.	c #0D0D34",
"@.	c #0E0E37",
"#.	c #0D0D35",
"$.	c #221C5C",
"%.	c #261B3A",
"&.	c #212080",
"*.	c #1E1E75",
"=.	c #191966",
"-.	c #0A0A29",
";.	c #090923",
">.	c #080821",
",.	c #080820",
"'.	c #0C0C31",
").	c #0D0D32",
"!.	c #0F0F3B",
"~.	c #181862",
"{.	c #221E6C",
"].	c #271C3A",
"^.	c #212184",
"/.	c #101041",
"(.	c #07071B",
"_.	c #050516",
":.	c #07071E",
"<.	c #080822",
"[.	c #090925",
"}.	c #0E0E39",
"|.	c #161659",
"1.	c #1C1C73",
"2.	c #281C40",
"3.	c #1F1F7E",
"4.	c #060618",
"5.	c #03030F",
"6.	c #020209",
"7.	c #050515",
"8.	c #090926",
"9.	c #202080",
"0.	c #1F1B64",
"a.	c #1F1F7F",
"b.	c #191963",
"c.	c #111144",
"d.	c #040410",
"e.	c #000000",
"f.	c #03030C",
"g.	c #060616",
"h.	c #181863",
"i.	c #1E1E7C",
"j.	c #251B48",
"k.	c #18185E",
"l.	c #101040",
"m.	c #0E0E3A",
"n.	c #0B0B2E",
"o.	c #06061A",
"p.	c #03030E",
"q.	c #040411",
"r.	c #050514",
"s.	c #0B0B2B",
"t.	c #12124A",
"u.	c #16165C",
"v.	c #261D50",
"w.	c #211B5A",
"x.	c #24217E",
"y.	c #070719",
"z.	c #07071A",
"A.	c #14144F",
"B.	c #251C48",
"C.	c #261C48",
"D.	c #2B2169",
"E.	c #10103F",
"F.	c #0A0A2A",
"G.	c #090924",
"H.	c #101043",
"I.	c #13134F",
"J.	c #291C24",
"K.	c #272063",
"L.	c #151552",
"M.	c #0D0D36",
"N.	c #161657",
"O.	c #26217A",
"P.	c #281E50",
"Q.	c #111147",
"R.	c #20207F",
"S.	c #282063",
"T.	c #241B50",
"U.	c #241E62",
"V.	c #101042",
"W.	c #121248",
"X.	c #17175E",
"Y.	c #1C1C70",
"Z.	c #26227A",
"`.	c #241F6F",
" +	c #1B1B6C",
".+	c #151556",
"++	c #111145",
"@+	c #10103E",
"#+	c #151557",
"$+	c #212185",
"%+	c #17175F",
"&+	c #17175D",
"*+	c #251C50",
"=+	c #1D1C6B",
"-+	c #2D2368",
";+	c #35230C",
">+	c #271B33",
",+	c #30200A",
"'+	c #221F76",
")+	c #1D1D77",
"!+	c #292168",
"~+	c #22218A",
"{+	c #1E1E81",
"]+	c #21207F",
"^+	c #25206C",
"/+	c #2D1F43",
"(+	c #302143",
"_+	c #281D43",
":+	c #292068",
"<+	c #291E43",
"[+	c #301F0B",
"  . + +     @ #   $   +   % & + * * + #               $ $       ",
"= . + + $   - *   ; $ %   & > + + + + * . + +   * , & & $ #     ",
"+     # + # + & * * # + + # # ' )       $   +   * , . & $ & #   ",
"    ' + . * + + * ,   % % $ $ - *   & & # & # # $ @   # + %     ",
"  * ! * + + $   $ & %     $ $ % $ $ * * # & * * . & & . + & &   ",
"  # # ~ + + $ + $ $ $ { ] ^ / / ( _ : < [           * #   & *   ",
"@ + . - * =   +     } | 1 2 3 4 3 3 5 3 6 7 8 + . + 9 +   0 % + ",
"@ + ~ ' % *     a b 4 4 4 c d e e f g h 6 4 i 3 j # . .   $ & @ ",
"    = + * . + k 3 e h h l l m n m m l n l l g 4 4 o & * ; $ & + ",
"  .   % > p q r l l l s t u v w w x y z A s s m c B C * ; $   # ",
"        ; D E g g F G w u y y y y w H w y w I J l e 4 ( $ $     ",
"  $ $   K 4 l L M l x w y N O P Q R R S T w w t J l c B U 0 * + ",
"  $ & % q 4 g l V y y W X T R S R R R S R R Y w A V l h c # Z $ ",
"  $ & ` 4 4 l F  .y W ..+.R R S R R @.R S #.R v w s e c 4 $.$ $ ",
"    %.&.4 *.l =.y y ..R #.R -.;.>.,.,.'.).R R !.y ~.A r c {.  + ",
"  & ].^.4 l =.Y y /.R +.R -.>.(._.:.<.[.'.R ).}.y |.1.e E {.  @ ",
"  # 2.3.c l A y N @.#.+.R ,.4.5.5.6.7.,.8.+.R ..y y f e 3 9.+ + ",
"$ $ 0.a.e M b.y c.@.@.).S ,.7.d.e.f.g.>.-.R +.O y y h.c i.l = $ ",
"$ $ j.b 4 F k.y l.S m.+.n.,.o.p.q.r.7.<.s.#.+.t.y y u.4 l v.    ",
"& * w.x.B g l y T R T #.S ,.,.:.y.z.>.>.).S R A.W y n 4 h B.*   ",
"$ & C.D.B r n y E.R @.R +.F.>.,.,.>.G.'.S @.H.I.H y 4 4 r J.* # ",
"  * # K.i 4 l y L.l.+.M.R R R R R R ).+.R H.A.W H N.4 4 O.  $ * ",
"  9 . P.4 4 e n Y l.l.#.R R R R ).R R R Q.H.y y z l 4 R.S.  $ $ ",
"  * , T.U.B B l m y N T T X @.#.m.V.W.W I.A.y X.Y.r 3 Z..       ",
"  * # + + `.3 h l  +.+y N.++N @+V.O ++V.W w #+Y.4 4 $+  + * *   ",
"+ 9 # . & . U 4 l Y.3.y N.Y I %+X.%+&+y y I r 4 4 R.    & . +   ",
"+ - * * & & *+=+3 e l Y.f %+I ~.~.~.h.I Y.4 4 4 o -+Z &     .   ",
"* $ * '   . ;+>+,+'+3 Y.e g e e e )+h 4 c B &.!+  ' Z &     9 * ",
", ; > >       $ ' ,+  ~+{+r h h h 6 E $+]+^+/+=         # + $ ; ",
"@ # + + * = ! * # *   ' (+    _+:+!+<+&     + ;+        + $ + + ",
"- ; *   * $ ; *   .   , . & + ; [+@   $ +     ;+  . * * . ; ! ; ",
"= +         + +       $ $ . & ' #     $ .       * * # # . ; +   "};
