/* XPM */
static char *bde690706bc445ea87c8aac463f3d70dx7gcSZYS4qcCaiUF[] = {
/* columns rows colors chars-per-pixel */
"32 32 133 2 ",
"   c #F71401",
".  c #F91401",
"X  c #F71904",
"o  c #F81C05",
"O  c #F71C08",
"+  c #F91C09",
"@  c #F7210B",
"#  c #F8200B",
"$  c #F52712",
"%  c #F82711",
"&  c #F62B14",
"*  c #F82B16",
"=  c #F62F18",
"-  c #F82E18",
";  c #F73117",
":  c #F5371F",
">  c #FA311D",
",  c #F63C23",
"<  c #F54025",
"1  c #F5422B",
"2  c #F4492D",
"3  c #F54B31",
"4  c #F55438",
"5  c #F45A3C",
"6  c #FA5343",
"7  c #F45F43",
"8  c #F55F4B",
"9  c #CA7A59",
"0  c #F36144",
"q  c #F36349",
"w  c #F26A4A",
"e  c #F56250",
"r  c #F46E51",
"t  c #EF7955",
"y  c #EF7B5A",
"u  c #F27353",
"i  c #F3755C",
"p  c #F27B5A",
"a  c #FA7264",
"s  c #F47C61",
"d  c #F47D69",
"f  c #FB7B70",
"g  c #F0825E",
"h  c #CA8D6E",
"j  c #EF8664",
"k  c #EF8A65",
"l  c #EF8B69",
"z  c #F28464",
"x  c #F08966",
"c  c #F18B6C",
"v  c #ED916C",
"b  c #EB8E7C",
"n  c #EF9672",
"m  c #ED9E77",
"M  c #E4967F",
"N  c #ED9F78",
"B  c #F19D76",
"V  c #F09E79",
"C  c #EDA076",
"Z  c #EDA27B",
"A  c #F0A47D",
"S  c #F88E80",
"D  c #E09E86",
"F  c #EEA582",
"G  c #EEA986",
"H  c #EEAC8B",
"J  c #F0A783",
"K  c #F1A986",
"L  c #F0AE8D",
"P  c #EFB08F",
"I  c #F1B18E",
"U  c #EFAF90",
"Y  c #F0A393",
"T  c #EFB394",
"R  c #F1B293",
"E  c #F1B699",
"W  c #F2BA9D",
"Q  c #F7AAA0",
"!  c #F2BDA3",
"~  c #F4B6A9",
"^  c #FABBB4",
"/  c #B7C79A",
"(  c #B6CD9F",
")  c #AAD5A8",
"_  c #DDC2A4",
"`  c #D3D0AF",
"'  c #C9DEBF",
"]  c #F3C1A5",
"[  c #F4C3AB",
"{  c #F5C7B0",
"}  c #F5CAB4",
"|  c #F6CDBA",
" . c #F8CFBD",
".. c #F6D0BD",
"X. c #F8D2BF",
"o. c #BAE9C9",
"O. c #E0D8C1",
"+. c #F7D5C4",
"@. c #F6D9C7",
"#. c #F7D7C8",
"$. c #F7DCCB",
"%. c #F8DACB",
"&. c #F6DDD2",
"*. c #F9DED1",
"=. c #CAE3C6",
"-. c #CDE1C8",
";. c #DBE3CC",
":. c #DEE6D1",
">. c #D7EAD6",
",. c #D6EDDA",
"<. c #E1E3CD",
"1. c #EEE2D2",
"2. c #EBEBDF",
"3. c #F7E1D4",
"4. c #FBE1D4",
"5. c #F9E5DB",
"6. c #FCE9DF",
"7. c #DBF3E5",
"8. c #E3EFE1",
"9. c #EDEDE1",
"0. c #FCECE4",
"q. c #FBEDEA",
"w. c #E0F5E6",
"e. c #E9F2E4",
"r. c #E5F7EB",
"t. c #ECF5EA",
"y. c #FDF2ED",
"u. c #EDF8F0",
"i. c #FBF7F2",
"p. c #F4FAF4",
"a. c #FDF9F5",
"s. c #F7FDF9",
"d. c #FFFFFE",
/* pixels */
"C Z m Z N Z m m N Z J J K L P R T H T [ [ ] [ ! [ | | H N m H d.",
"m L Z Z Z Z C m N m N N N N N N N N m C Z Z Z G Z G 6. .+.G N d.",
"N R Z C Z C Z Z N m m m N N m N m C m m C m N J Z N Z } $.! m #.",
"Z 6.| } ! [ [ U J F F J Z F Z F F Z F F G L G R H G C N G +.N G ",
"C 5.#.{ E E } | R F Z N N Z C Z C N m m F +.%.! L L E D m [ m H ",
"G } #.*.{ [ #.#.N m m m Z Z m m Z N N +.X.| d.y.] L L E F Z m | ",
"Z ! 0.y.<.;.2.d.%.m N m m m m m Z C ! d.9.-.>.p.d.t.W E ! m m | ",
"V ! 0.0.h M :.r.d.0.N N m V N N N F a.a.,.,.^ Y p.d.7.W G m m ! ",
"m ! y.i.9 6 d / d.t.N N F m m N N 0.d.1.7.S f 8 _ 2.d.e.m G N H ",
"A R 0.d.7.b , D d.' N N N Z N N N 0.d.e.~ 6 a H C / d.t.Z ..N Z ",
"N G K e.d.p.&.i.d.m n m m Z N Z N N $.d.q.Q O.` ) o.d.} T ! Z N ",
"N L R G 0.i.t.p.3.m m V m m Z Z N m N 0.d.d.s.s.r.s.d.G H G F m ",
"N R R L m m m m m m N m m Z m N m B C N B =.p.i.0.i.5.H T G Z m ",
"N W L K Z m m V V m m m m m m Z N N m N N A N N n m N F H F Z C ",
"N R E K F m m m N N N m m m V m N V m m m m A m m C C Z Z J J Z ",
"N I [ K Z C N m m m m m m m m m n m m m V m m V m C C A Z J Z G ",
"m L ! G K J N N N V m C m m m m N N m N m N N N m N m m C F F L ",
"m H W G L K C N V A m N m N N m m N m N N N N N N m N N m Z F Z ",
"A H W L Z Z F A m A n C m m m N m m m N N N m N m 5 0 m Z V C F ",
"N W ! 1 = F J Z C n m m m m N N m m N N N m m m N O 2 N m m V F ",
"Z [ [ - . 3 J Z Z z p g z v v N V V m m m m N m u . u m V Z C J ",
"F [ [ z . . ; z p j y u u u u u t p x m N m N N & X Z Z A m V F ",
"J { +.R X . X q 5 5 t l Z n v x c p k C m N N 4 . & G H G N F F ",
"Z *.%.! 8 X . 3 3 2 , 2 7 s c c l N m C N x , .   i I R H F G G ",
"H 5.i.[ W u . . & , , , 3 8 7 u i l A n u &   o   H L ! R F G m ",
"F &.6.} R E + .     . X . + 3 u k B c 7 O   o   , I ] [ ! G G N ",
"F 3.0...W [ [ | e X     .   . . O % + . o @   3 R | } [ W W N Z ",
"E q.d.0.3.+.[ W E E H u $   . . . . . .   . : T } } [ E W F m | ",
"G d.d.d.d.y.+.....E H E T W w $ @ = @ & w C F F F G P W E m F 5.",
"m [ d.d.d.a.+.[ H H Z F G F G F F Z m Z Z C m m Z C Z Z m m Z Z ",
"[ m G P P P F Z F Z Z Z N N m N N N m N M C Z Z m m Z m m Z m m ",
"d.H H P U P F F H F Z H F F N N G Z C Z F C C Z G Z Z P Z Z H Z "
};
