/* XPM */
static char * player2_xpm[] = {
"42 32 148 2",
"  	c None",
". 	c #000000",
"+ 	c #48473F",
"@ 	c #545349",
"# 	c #848273",
"$ 	c #908E7D",
"% 	c #656458",
"& 	c #302F29",
"* 	c #4A4940",
"= 	c #828072",
"- 	c #969483",
"; 	c #8B8979",
"> 	c #37362F",
", 	c #393831",
"' 	c #3C3B34",
") 	c #414038",
"! 	c #626155",
"~ 	c #3B3A33",
"{ 	c #403F37",
"] 	c #4B4A41",
"^ 	c #69675B",
"/ 	c #878676",
"( 	c #878576",
"_ 	c #58574C",
": 	c #424139",
"< 	c #525147",
"[ 	c #515046",
"} 	c #767567",
"| 	c #2A2A24",
"1 	c #3D3C35",
"2 	c #4C4B42",
"3 	c #7C7A6C",
"4 	c #5F5E52",
"5 	c #23221D",
"6 	c #32312B",
"7 	c #494840",
"8 	c #4E4D44",
"9 	c #6A685C",
"0 	c #55544A",
"a 	c #1C1B17",
"b 	c #35342D",
"c 	c #615F54",
"d 	c #46453D",
"e 	c #272721",
"f 	c #2F2F29",
"g 	c #22211C",
"h 	c #10100D",
"i 	c #393931",
"j 	c #31302A",
"k 	c #6E6D60",
"l 	c #92907F",
"m 	c #878575",
"n 	c #43423A",
"o 	c #424239",
"p 	c #5A584E",
"q 	c #313029",
"r 	c #6B6A5D",
"s 	c #2D2C26",
"t 	c #403F38",
"u 	c #68675A",
"v 	c #6D6C5F",
"w 	c #2A2924",
"x 	c #050504",
"y 	c #4B4B41",
"z 	c #908E7E",
"A 	c #797769",
"B 	c #11100D",
"C 	c #181714",
"D 	c #282722",
"E 	c #141310",
"F 	c #131310",
"G 	c #141311",
"H 	c #8E8D7C",
"I 	c #44433B",
"J 	c #626262",
"K 	c #7D7D7D",
"L 	c #CB6A6A",
"M 	c #A07676",
"N 	c #757575",
"O 	c #8E8C7C",
"P 	c #5D5C51",
"Q 	c #3A3932",
"R 	c #474644",
"S 	c #949493",
"T 	c #FF8787",
"U 	c #CA9696",
"V 	c #959494",
"W 	c #21201D",
"X 	c #23231E",
"Y 	c #5E5D52",
"Z 	c #24231E",
"` 	c #7D0E00",
" .	c #BC322C",
"..	c #CD4A47",
"+.	c #F8807F",
"@.	c #F07F7F",
"#.	c #151511",
"$.	c #22221D",
"%.	c #23221E",
"&.	c #0D0C0A",
"*.	c #020201",
"=.	c #33322C",
"-.	c #3E3D35",
";.	c #8B8A87",
">.	c #BDBDBD",
",.	c #B0B0B0",
"'.	c #622018",
").	c #96413A",
"!.	c #C23732",
"~.	c #DD6160",
"{.	c #E88E8E",
"].	c #CC8989",
"^.	c #46453C",
"/.	c #22211D",
"(.	c #181815",
"_.	c #13130F",
":.	c #181814",
"<.	c #83827F",
"[.	c #AFAFAF",
"}.	c #8B8B8B",
"|.	c #4F4F45",
"1.	c #CA4643",
"2.	c #A06763",
"3.	c #8F8F8F",
"4.	c #47463D",
"5.	c #7A786A",
"6.	c #747365",
"7.	c #2C2C26",
"8.	c #706E61",
"9.	c #7C7B6C",
"0.	c #737370",
"a.	c #9E9E9E",
"b.	c #939393",
"c.	c #A01704",
"d.	c #AC251B",
"e.	c #85433B",
"f.	c #36352E",
"g.	c #252520",
"h.	c #35342E",
"i.	c #6A695C",
"j.	c #929080",
"k.	c #7F7D6F",
"l.	c #56544A",
"m.	c #161512",
"n.	c #171613",
"o.	c #0E0D0B",
"p.	c #2D2D27",
"q.	c #747265",
". . . . . . . . . . . . . . . . . . . . . . . . . . . . . . . . . . . . . . . . . . ",
". . . . . . . . . . . . . . . . . . . . . . . . . . . . . . . . . . . . . . . . . . ",
". . . . . . . . . . . . . . . . . . . . . . . . . . . . . . . . . . . . . . . . . . ",
". . . . . . . . . . . .             . . . . . . . . . . . . . . . . . . . . . . . . ",
". . . . . . . . . .     + @ # # $ %     . . . . . . . . . . . . . . . . . . . . . . ",
". . . . . . . . .     & * @ @ @ = - ;     . . . . . . . . . . . . . . . . . . . . . ",
". . . . . . . . .   > , ' ) @ @ = - - !   . . . . . . . . . . . . . . . . . . . . . ",
". . . . . . . . .   > ~ ~ { ] ^ / ( ( _   . . . . . . . . . . . . . . . . . . . . . ",
". . . . . . . . .   > ~ : < . . . . .     . . . . . . . . . . . . . . . . . . . . . ",
". . . . . . . . .   > : [ @ } } * | }     . . . . . . . . . . . . . . . . . . . . . ",
". . . . . . . . .     1 2 @ % 3 4 5 % )   . . . . . . . . . . . . . . . . . . . . . ",
". . . . . . . .       6 6 7 8 9 0 a @ b *     . . . . . . . . . . . . . . . . . . . ",
". . . . . . .     c d & . 5 e f g h i j k $     . . . . . . . . . . . . . . . . . . ",
". . . . . . .   9 l m n . o p ^ . q r s t u [   . . . . . . . . . . . . . . . . . . ",
". . . . . . .   r v * w x y ! z - - A B C     . . . . . . . . . . . . . . . . . . . ",
". . . .         D ) E F G y @ ^ H - A s I   . . . . . . . . . . . . . . . . . . . . ",
". . . .   J K L L M N F G y @ @ 9 O P Q Q     . . . . . . . . . . . . . . . . . . . ",
". . . .   R S T T U V F W X @ @ @ Y a ) Z Q               . . . . . . . . . . . . . ",
". . . .   `  ...+.T @.#.$.%.&.&.&.*.=.-.&.) ;.>.>.>.>.>.,.    . . . . . . . . . . . ",
". . . .   '.).!.~.{.].=.^./.(.(.(._.~ 1 :.) <.[.[.[.[.[.[.}.  . . . . . . . . . . . ",
". . . .   s |.!.1.2.3.:.4.5.6.7.8.9.n     1 0.a.a.a.a.a.b.    . . . . . . . . . . . ",
". . . . .     c.d.e.    f.*     g.4.      h.              . . . . . . . . . . . . . ",
". . . . . .   ` `       i.j.    n k.A         . . . . . . . . . . . . . . . . . . . ",
". . . . . . .         w d %     > 2 l.  . . . . . . . . . . . . . . . . . . . . . . ",
". . . . . . . . . . .   m.#.    B n.o.  . . . . . . . . . . . . . . . . . . . . . . ",
". . . . . . . . . .   p.q./       < / _   . . . . . . . . . . . . . . . . . . . . . ",
". . . . . . . . . .           .           . . . . . . . . . . . . . . . . . . . . . ",
". . . . . . . . . . . . . . . . . . . . . . . . . . . . . . . . . . . . . . . . . . ",
". . . . . . . . . . . . . . . . . . . . . . . . . . . . . . . . . . . . . . . . . . ",
". . . . . . . . . . . . . . . . . . . . . . . . . . . . . . . . . . . . . . . . . . ",
". . . . . . . . . . . . . . . . . . . . . . . . . . . . . . . . . . . . . . . . . . ",
". . . . . . . . . . . . . . . . . . . . . . . . . . . . . . . . . . . . . . . . . . "};
